<?xml version="1.0" encoding="utf-8"?>
<svg viewBox="21.484 66.693 182.0154 27.0371" xmlns="http://www.w3.org/2000/svg" xmlns:xlink="http://www.w3.org/1999/xlink" xmlns:bx="https://boxy-svg.com">
  <defs>
    <linearGradient id="color-1-0" gradientUnits="userSpaceOnUse" x1="128.422" y1="71.583" x2="128.422" y2="93.649" xlink:href="#color-1"/>
    <linearGradient id="color-1" bx:pinned="true">
      <stop style="stop-color: #f12711;" offset="0"/>
      <stop style="stop-color: #f5af19;" offset="1"/>
    </linearGradient>
    <linearGradient id="paint0_linear_425_166" x1="4.66832" y1="24.1098" x2="34.1078" y2="13.9886" gradientUnits="userSpaceOnUse" gradientTransform="matrix(1, 0, 0, 1, 17.483849, 60.693764)">
      <stop stop-color="#F89E00"/>
      <stop offset="1" stop-color="#DA2F68"/>
    </linearGradient>
  </defs>
  <path d="M 58.221 76.689 Q 58.241 76.669 58.281 76.589 Q 58.421 76.349 58.751 75.819 Q 59.081 75.289 59.591 74.759 Q 60.101 74.229 60.771 73.819 Q 61.441 73.409 62.221 73.409 Q 62.621 73.409 62.871 73.679 Q 63.121 73.949 63.271 74.389 Q 63.421 74.829 63.481 75.389 Q 63.541 75.949 63.561 76.529 Q 63.601 77.489 63.641 78.309 Q 63.681 79.129 63.741 79.529 Q 63.881 79.189 64.141 78.659 Q 64.401 78.129 64.801 77.539 Q 65.201 76.949 65.711 76.359 Q 66.221 75.769 66.831 75.299 Q 67.441 74.829 68.141 74.539 Q 68.841 74.249 69.621 74.249 Q 70.061 74.249 70.431 74.449 Q 70.801 74.649 71.081 74.959 Q 71.361 75.269 71.531 75.639 Q 71.701 76.009 71.721 76.329 Q 71.741 76.609 71.781 77.249 Q 71.821 77.889 71.851 78.749 Q 71.881 79.609 71.901 80.609 Q 71.921 81.609 71.921 82.629 Q 71.921 83.709 71.891 84.739 Q 71.861 85.769 71.771 86.559 Q 71.681 87.349 71.531 87.839 Q 71.381 88.329 71.141 88.329 L 71.021 88.329 Q 70.281 88.329 69.841 87.839 Q 69.401 87.349 69.171 86.709 Q 68.941 86.069 68.871 85.459 Q 68.801 84.849 68.781 84.589 L 68.781 84.529 Q 68.761 84.269 68.751 83.779 Q 68.741 83.289 68.731 82.659 Q 68.721 82.029 68.711 81.329 Q 68.701 80.629 68.701 79.969 Q 68.701 79.069 68.731 78.349 Q 68.761 77.629 68.821 77.409 Q 68.341 77.609 67.881 78.179 Q 67.421 78.749 67.011 79.549 Q 66.601 80.349 66.241 81.279 Q 65.881 82.209 65.571 83.119 Q 65.261 84.029 65.001 84.859 Q 64.741 85.689 64.541 86.249 Q 64.441 86.529 64.121 86.669 Q 63.801 86.809 63.501 86.809 L 63.481 86.809 Q 62.961 86.809 62.571 86.149 Q 62.181 85.489 61.881 84.469 Q 61.581 83.449 61.381 82.239 Q 61.181 81.029 61.051 79.929 Q 60.921 78.829 60.871 77.989 Q 60.821 77.149 60.821 76.889 Q 60.461 77.109 60.141 77.469 Q 59.821 77.829 59.541 78.259 Q 59.261 78.689 59.011 79.139 Q 58.761 79.589 58.561 80.009 Q 58.341 80.449 58.181 80.889 Q 58.021 81.329 57.911 81.879 Q 57.801 82.429 57.751 83.149 Q 57.701 83.869 57.701 84.889 L 57.701 85.169 Q 57.701 85.769 57.671 86.299 Q 57.641 86.829 57.501 87.229 Q 57.361 87.629 57.081 87.869 Q 56.801 88.109 56.301 88.129 L 56.181 88.129 Q 55.781 88.129 55.501 87.889 Q 55.221 87.649 55.021 87.009 Q 54.921 86.689 54.831 86.019 Q 54.741 85.349 54.681 84.599 Q 54.621 83.849 54.581 83.129 Q 54.541 82.409 54.541 81.969 Q 54.541 80.729 54.651 79.479 Q 54.761 78.229 54.981 77.169 Q 55.021 77.069 55.041 76.959 Q 55.061 76.849 55.081 76.749 Q 55.201 76.229 55.311 75.789 Q 55.421 75.349 55.601 75.039 Q 55.781 74.729 56.081 74.549 Q 56.381 74.369 56.861 74.369 Q 57.281 74.369 57.531 74.649 Q 57.781 74.929 57.921 75.309 Q 58.061 75.689 58.121 76.079 Q 58.181 76.469 58.221 76.689 Z M 76.735 86.749 Q 76.715 86.969 76.665 87.139 Q 76.615 87.309 76.485 87.449 Q 76.355 87.589 76.095 87.699 Q 75.835 87.809 75.375 87.909 Q 74.755 87.769 74.365 87.349 Q 73.975 86.929 73.745 86.249 Q 73.515 85.569 73.435 84.609 Q 73.355 83.649 73.355 82.389 Q 73.355 81.429 73.575 80.389 Q 73.795 79.349 74.185 78.329 Q 74.575 77.309 75.075 76.399 Q 75.575 75.489 76.145 74.789 Q 76.715 74.089 77.305 73.679 Q 77.895 73.269 78.435 73.269 Q 79.395 73.269 80.185 73.779 Q 80.975 74.289 81.575 75.039 Q 82.175 75.789 82.575 76.649 Q 82.975 77.509 83.155 78.209 L 83.815 80.569 Q 84.135 80.549 84.345 80.499 Q 84.555 80.449 84.705 80.399 Q 84.855 80.349 84.995 80.289 Q 85.135 80.229 85.295 80.189 Q 85.315 80.269 85.315 80.429 Q 85.315 80.649 85.195 81.149 Q 85.075 81.649 84.815 82.689 L 84.655 82.929 L 84.515 83.069 Q 84.655 84.509 84.695 85.079 Q 84.735 85.649 84.735 85.669 Q 84.735 86.029 84.545 86.419 Q 84.355 86.809 84.035 87.139 Q 83.715 87.469 83.295 87.679 Q 82.875 87.889 82.415 87.889 Q 82.195 87.889 82.085 87.659 Q 81.975 87.429 81.975 87.029 Q 81.975 86.749 81.995 86.319 Q 82.015 85.889 82.015 85.429 Q 82.015 84.849 81.945 84.339 Q 81.875 83.829 81.615 83.609 L 76.555 82.929 Z M 81.235 80.929 Q 81.215 80.449 81.145 79.939 Q 81.075 79.429 80.855 78.909 Q 80.435 77.909 80.165 77.309 Q 79.895 76.709 79.685 76.379 Q 79.475 76.049 79.325 75.949 Q 79.175 75.849 78.995 75.849 Q 78.755 75.849 78.515 76.039 Q 78.275 76.229 78.115 76.629 Q 77.695 77.589 77.285 78.599 Q 76.875 79.609 76.715 80.669 Z M 93.206 72.809 Q 93.206 72.569 93.266 72.269 Q 93.326 71.969 93.606 71.969 Q 93.886 71.969 94.316 72.289 Q 94.746 72.609 95.226 73.199 Q 95.706 73.789 96.186 74.639 Q 96.666 75.489 97.056 76.549 Q 97.446 77.609 97.686 78.859 Q 97.926 80.109 97.926 81.489 Q 97.926 82.409 97.716 83.359 Q 97.506 84.309 97.116 85.089 Q 96.726 85.869 96.156 86.359 Q 95.586 86.849 94.846 86.849 Q 94.266 86.849 93.686 86.299 Q 93.106 85.749 92.556 84.919 Q 92.006 84.089 91.526 83.129 Q 91.046 82.169 90.646 81.339 Q 90.246 80.509 89.956 79.959 Q 89.666 79.409 89.526 79.409 Q 89.466 79.409 89.386 79.509 Q 89.306 79.609 89.246 79.849 Q 89.206 79.969 89.186 80.369 Q 89.166 80.769 89.136 81.319 Q 89.106 81.869 89.076 82.519 Q 89.046 83.169 89.016 83.789 Q 88.986 84.409 88.936 84.939 Q 88.886 85.469 88.846 85.769 L 88.826 85.909 Q 88.786 86.149 88.706 86.449 Q 88.626 86.749 88.496 87.019 Q 88.366 87.289 88.156 87.469 Q 87.946 87.649 87.646 87.649 Q 87.166 87.649 86.866 87.289 Q 86.566 86.929 86.386 86.429 Q 86.206 85.929 86.146 85.389 Q 86.086 84.849 86.086 84.489 Q 86.086 83.969 86.166 83.069 Q 86.246 82.169 86.416 81.119 Q 86.586 80.069 86.826 78.989 Q 87.066 77.909 87.366 77.029 Q 87.666 76.149 88.036 75.599 Q 88.406 75.049 88.846 75.049 Q 89.146 75.049 89.536 75.429 Q 89.926 75.809 90.386 76.439 Q 90.846 77.069 91.356 77.879 Q 91.866 78.689 92.406 79.539 Q 92.946 80.389 93.486 81.209 Q 94.026 82.029 94.566 82.689 Q 94.686 82.809 94.746 82.909 Q 94.806 83.009 94.846 83.009 Q 95.026 83.009 95.056 82.749 Q 95.086 82.489 95.086 81.969 Q 95.086 81.049 95.026 80.319 Q 94.966 79.589 94.856 78.959 Q 94.746 78.329 94.586 77.739 Q 94.426 77.149 94.226 76.509 Q 94.026 75.869 93.796 75.129 Q 93.566 74.389 93.326 73.449 L 93.206 72.969 Z M 109.754 77.489 Q 109.394 77.729 108.954 77.829 Q 108.514 77.929 108.034 77.929 Q 108.214 77.589 108.304 77.319 Q 108.394 77.049 108.394 76.889 Q 108.394 76.769 108.294 76.669 Q 108.194 76.569 107.914 76.569 Q 107.734 76.569 107.464 76.619 Q 107.194 76.669 106.834 76.769 Q 105.794 77.009 104.894 77.489 Q 103.994 77.969 103.324 78.689 Q 102.654 79.409 102.264 80.359 Q 101.874 81.309 101.874 82.489 Q 101.874 83.809 102.624 84.509 Q 103.374 85.209 104.994 85.209 Q 105.354 85.209 106.014 85.129 Q 106.674 85.049 107.314 84.759 Q 107.954 84.469 108.434 83.909 Q 108.914 83.349 108.914 82.369 Q 108.914 82.169 108.714 82.059 Q 108.514 81.949 108.224 81.889 Q 107.934 81.829 107.614 81.819 Q 107.294 81.809 107.034 81.809 Q 106.194 81.809 105.604 82.239 Q 105.014 82.669 104.554 83.489 Q 103.894 83.289 103.764 83.009 Q 103.634 82.729 103.634 82.249 Q 103.634 81.609 103.914 81.169 Q 104.194 80.729 104.644 80.429 Q 105.094 80.129 105.674 79.969 Q 106.254 79.809 106.854 79.729 Q 107.454 79.649 108.024 79.629 Q 108.594 79.609 109.034 79.609 Q 109.714 79.609 110.244 79.829 Q 110.774 80.049 111.144 80.409 Q 111.514 80.769 111.714 81.239 Q 111.914 81.709 111.914 82.209 Q 111.914 83.569 111.424 84.619 Q 110.934 85.669 110.004 86.389 Q 109.074 87.109 107.714 87.479 Q 106.354 87.849 104.634 87.849 Q 103.114 87.849 102.054 87.509 Q 100.994 87.169 100.324 86.479 Q 99.654 85.789 99.344 84.779 Q 99.034 83.769 99.034 82.409 Q 99.034 81.109 99.444 79.949 Q 99.854 78.789 100.514 77.809 Q 101.174 76.829 102.044 76.059 Q 102.914 75.289 103.834 74.739 Q 104.754 74.189 105.654 73.899 Q 106.554 73.609 107.314 73.609 Q 110.314 73.609 110.314 75.609 Q 110.314 76.009 110.194 76.469 Q 110.074 76.929 109.834 77.409 Z M 116.322 86.749 Q 116.302 86.969 116.252 87.139 Q 116.202 87.309 116.072 87.449 Q 115.942 87.589 115.682 87.699 Q 115.422 87.809 114.962 87.909 Q 114.342 87.769 113.952 87.349 Q 113.562 86.929 113.332 86.249 Q 113.102 85.569 113.022 84.609 Q 112.942 83.649 112.942 82.389 Q 112.942 81.429 113.162 80.389 Q 113.382 79.349 113.772 78.329 Q 114.162 77.309 114.662 76.399 Q 115.162 75.489 115.732 74.789 Q 116.302 74.089 116.892 73.679 Q 117.482 73.269 118.022 73.269 Q 118.982 73.269 119.772 73.779 Q 120.562 74.289 121.162 75.039 Q 121.762 75.789 122.162 76.649 Q 122.562 77.509 122.742 78.209 L 123.402 80.569 Q 123.722 80.549 123.932 80.499 Q 124.142 80.449 124.292 80.399 Q 124.442 80.349 124.582 80.289 Q 124.722 80.229 124.882 80.189 Q 124.902 80.269 124.902 80.429 Q 124.902 80.649 124.782 81.149 Q 124.662 81.649 124.402 82.689 L 124.242 82.929 L 124.102 83.069 Q 124.242 84.509 124.282 85.079 Q 124.322 85.649 124.322 85.669 Q 124.322 86.029 124.132 86.419 Q 123.942 86.809 123.622 87.139 Q 123.302 87.469 122.882 87.679 Q 122.462 87.889 122.002 87.889 Q 121.782 87.889 121.672 87.659 Q 121.562 87.429 121.562 87.029 Q 121.562 86.749 121.582 86.319 Q 121.602 85.889 121.602 85.429 Q 121.602 84.849 121.532 84.339 Q 121.462 83.829 121.202 83.609 L 116.142 82.929 Z M 120.822 80.929 Q 120.802 80.449 120.732 79.939 Q 120.662 79.429 120.442 78.909 Q 120.022 77.909 119.752 77.309 Q 119.482 76.709 119.272 76.379 Q 119.062 76.049 118.912 75.949 Q 118.762 75.849 118.582 75.849 Q 118.342 75.849 118.102 76.039 Q 117.862 76.229 117.702 76.629 Q 117.282 77.589 116.872 78.599 Q 116.462 79.609 116.302 80.669 Z M 144.955 82.569 Q 144.955 82.749 144.875 82.829 Q 144.635 83.089 143.995 83.389 Q 143.355 83.689 142.595 83.689 Q 142.495 83.689 142.135 83.559 Q 141.775 83.429 141.275 83.259 Q 140.775 83.089 140.235 82.959 Q 139.695 82.829 139.235 82.829 Q 138.775 82.829 138.475 83.019 Q 138.175 83.209 138.175 83.689 Q 138.175 83.849 138.435 84.049 Q 138.695 84.249 139.115 84.429 Q 139.575 84.609 140.195 84.709 Q 140.815 84.809 141.515 84.809 Q 142.375 84.809 143.275 84.659 Q 144.175 84.509 144.905 84.219 Q 145.635 83.929 146.095 83.509 Q 146.555 83.089 146.555 82.529 Q 146.555 82.149 146.235 81.849 Q 145.915 81.549 145.405 81.309 Q 144.895 81.069 144.245 80.889 Q 143.595 80.709 142.935 80.599 Q 142.275 80.489 141.665 80.429 Q 141.055 80.369 140.635 80.349 Q 138.915 80.309 137.885 80.169 Q 136.855 80.029 136.315 79.759 Q 135.775 79.489 135.605 79.039 Q 135.435 78.589 135.435 77.909 Q 135.435 76.909 135.995 76.189 Q 136.555 75.469 137.415 74.989 Q 138.275 74.509 139.285 74.229 Q 140.295 73.949 141.175 73.799 Q 142.055 73.649 142.675 73.609 Q 143.295 73.569 143.395 73.569 Q 144.895 73.569 146.205 73.799 Q 147.515 74.029 148.515 74.309 Q 148.735 74.349 148.845 74.469 Q 148.955 74.589 148.955 74.949 Q 148.915 75.349 148.665 75.579 Q 148.415 75.809 148.075 75.929 Q 147.835 75.989 147.415 76.069 Q 146.995 76.149 146.755 76.189 Q 146.475 76.229 145.735 76.279 Q 144.995 76.329 144.045 76.399 Q 143.095 76.469 142.065 76.559 Q 141.035 76.649 140.175 76.799 Q 139.315 76.949 138.755 77.159 Q 138.195 77.369 138.195 77.649 Q 138.195 77.869 138.715 77.989 Q 139.235 78.109 139.955 78.199 Q 140.675 78.289 141.445 78.339 Q 142.215 78.389 142.695 78.449 Q 144.135 78.629 145.325 78.839 Q 146.515 79.049 147.365 79.499 Q 148.215 79.949 148.685 80.759 Q 149.155 81.569 149.155 82.929 Q 149.155 83.969 148.745 84.739 Q 148.335 85.509 147.705 86.049 Q 147.075 86.589 146.295 86.929 Q 145.515 87.269 144.775 87.469 Q 144.035 87.669 143.415 87.739 Q 142.795 87.809 142.475 87.809 Q 141.195 87.809 140.035 87.419 Q 138.875 87.029 137.995 86.429 Q 137.115 85.829 136.595 85.109 Q 136.075 84.389 136.075 83.729 Q 136.075 82.949 136.415 82.429 Q 136.755 81.909 137.295 81.609 Q 137.835 81.309 138.475 81.189 Q 139.115 81.069 139.715 81.069 Q 140.275 81.069 140.925 81.149 Q 141.575 81.229 142.245 81.399 Q 142.915 81.569 143.585 81.819 Q 144.255 82.069 144.875 82.409 Q 144.955 82.489 144.955 82.569 Z M 156.279 90.489 Q 155.999 90.729 155.809 90.809 Q 155.619 90.889 155.159 90.889 Q 154.879 90.889 154.599 90.759 Q 154.319 90.629 154.079 90.429 Q 153.839 90.229 153.649 89.999 Q 153.459 89.769 153.339 89.569 Q 153.099 89.169 152.969 88.659 Q 152.839 88.149 152.759 87.609 Q 152.679 87.069 152.659 86.529 Q 152.639 85.989 152.639 85.529 Q 152.639 84.249 152.729 83.199 Q 152.819 82.149 152.969 81.249 Q 153.119 80.349 153.329 79.559 Q 153.539 78.769 153.799 77.969 Q 151.739 77.149 150.689 76.189 Q 149.639 75.229 149.639 74.049 Q 149.639 73.849 149.679 73.579 Q 149.719 73.309 149.809 73.049 Q 149.899 72.789 150.059 72.579 Q 150.219 72.369 150.439 72.289 Q 150.639 72.289 150.699 72.449 Q 150.759 72.609 150.769 72.819 Q 150.779 73.029 150.799 73.239 Q 150.819 73.449 150.919 73.529 Q 151.939 74.369 152.989 74.719 Q 154.039 75.069 155.279 75.249 Q 155.539 74.989 155.899 74.589 Q 156.259 74.189 156.729 73.799 Q 157.199 73.409 157.789 73.129 Q 158.379 72.849 159.119 72.849 Q 159.519 72.849 159.999 72.949 Q 160.479 73.049 160.899 73.379 Q 161.319 73.709 161.599 74.349 Q 161.879 74.989 161.879 76.089 Q 161.879 76.949 161.349 77.469 Q 160.819 77.989 160.079 78.279 Q 159.339 78.569 158.549 78.669 Q 157.759 78.769 157.239 78.769 L 156.999 78.769 Q 156.739 79.729 156.549 80.619 Q 156.359 81.509 156.239 82.399 Q 156.119 83.289 156.059 84.199 Q 155.999 85.109 155.999 86.089 Q 155.999 87.269 156.119 88.379 Q 156.239 89.489 156.279 90.489 Z M 157.839 75.529 Q 157.999 75.569 158.149 75.589 Q 158.299 75.609 158.479 75.609 Q 158.719 75.609 159.009 75.529 Q 159.299 75.449 159.539 75.309 Q 159.779 75.169 159.949 74.989 Q 160.119 74.809 160.119 74.609 Q 160.119 74.389 160.039 74.279 Q 159.959 74.169 159.719 74.169 Q 159.419 74.169 159.089 74.239 Q 158.759 74.309 158.489 74.469 Q 158.219 74.629 158.039 74.889 Q 157.859 75.149 157.839 75.529 Z M 163.999 86.169 Q 163.179 84.809 162.829 83.529 Q 162.479 82.249 162.479 81.049 Q 162.479 79.449 163.119 78.079 Q 163.759 76.709 164.819 75.719 Q 165.879 74.729 167.269 74.169 Q 168.659 73.609 170.159 73.609 Q 171.479 73.609 172.279 73.949 Q 173.279 74.349 173.279 74.729 Q 173.279 74.969 172.979 75.089 Q 172.679 75.209 172.399 75.249 L 172.479 75.249 Q 173.139 75.249 173.849 75.419 Q 174.559 75.589 175.199 76.009 Q 175.459 76.169 175.679 76.539 Q 175.899 76.909 176.059 77.369 Q 176.219 77.829 176.309 78.319 Q 176.399 78.809 176.399 79.209 Q 176.399 81.049 175.499 82.569 Q 174.599 84.089 173.159 85.179 Q 171.719 86.269 169.919 86.899 Q 168.119 87.529 166.319 87.609 Q 166.199 87.969 165.879 88.259 Q 165.559 88.549 165.199 88.889 Q 164.599 88.109 164.299 87.419 Q 163.999 86.729 163.999 86.249 Z M 172.559 77.689 Q 171.759 77.689 171.079 78.149 Q 170.399 78.609 169.799 79.459 Q 169.199 80.309 168.639 81.519 Q 168.079 82.729 167.519 84.209 L 168.039 84.209 Q 168.559 84.209 169.219 84.019 Q 169.879 83.829 170.559 83.479 Q 171.239 83.129 171.889 82.639 Q 172.539 82.149 173.039 81.569 Q 173.539 80.989 173.849 80.329 Q 174.159 79.669 174.159 78.969 Q 174.159 78.329 173.719 78.009 Q 173.279 77.689 172.559 77.689 Z M 170.699 75.549 Q 171.059 75.449 171.399 75.369 Q 171.739 75.289 172.119 75.249 Q 171.519 75.309 170.849 75.469 Q 170.179 75.629 169.639 75.809 Q 168.379 76.109 167.469 76.749 Q 166.559 77.389 165.959 78.229 Q 165.359 79.069 165.079 80.019 Q 164.799 80.969 164.799 81.889 Q 164.799 82.189 164.829 82.489 Q 164.859 82.789 164.959 83.089 Q 165.599 81.449 166.229 80.169 Q 166.859 78.889 167.519 77.959 Q 168.179 77.029 168.909 76.449 Q 169.639 75.869 170.479 75.609 Z M 186.361 87.969 Q 186.321 87.909 185.871 87.439 Q 185.421 86.969 184.801 86.309 Q 184.181 85.649 183.521 84.909 Q 182.861 84.169 182.381 83.569 Q 181.821 83.549 181.391 83.489 Q 180.961 83.429 180.561 83.209 Q 180.521 83.609 180.481 84.109 Q 180.441 84.609 180.411 85.109 Q 180.381 85.609 180.341 86.069 Q 180.301 86.529 180.281 86.889 Q 180.241 87.369 179.941 87.609 Q 179.641 87.849 179.241 87.849 Q 178.901 87.849 178.561 87.709 Q 178.221 87.569 177.951 87.319 Q 177.681 87.069 177.501 86.719 Q 177.321 86.369 177.321 85.929 Q 177.321 83.369 177.741 80.999 Q 178.161 78.629 178.941 76.169 Q 178.701 76.209 178.501 76.249 Q 178.301 76.289 178.161 76.289 Q 177.741 76.069 177.551 75.849 Q 177.361 75.629 177.361 75.409 Q 177.361 75.049 177.931 74.709 Q 178.501 74.369 179.261 74.099 Q 180.021 73.829 180.791 73.659 Q 181.561 73.489 181.961 73.489 Q 183.761 73.489 185.021 73.789 Q 186.281 74.089 187.061 74.739 Q 187.841 75.389 188.201 76.409 Q 188.561 77.429 188.561 78.889 Q 188.561 79.609 188.281 80.249 Q 188.001 80.889 187.531 81.419 Q 187.061 81.949 186.451 82.359 Q 185.841 82.769 185.201 83.049 Q 185.701 83.329 186.291 83.879 Q 186.881 84.429 187.391 85.009 Q 187.901 85.589 188.231 86.079 Q 188.561 86.569 188.561 86.729 Q 188.561 87.029 188.351 87.289 Q 188.141 87.549 187.851 87.729 Q 187.561 87.909 187.261 88.019 Q 186.961 88.129 186.761 88.129 Q 186.521 88.129 186.361 87.969 Z M 181.681 75.809 Q 181.521 76.469 181.401 77.049 Q 181.281 77.629 181.181 78.219 Q 181.081 78.809 180.991 79.439 Q 180.901 80.069 180.821 80.829 Q 181.181 80.889 181.651 80.899 Q 182.121 80.909 182.641 80.909 Q 183.021 80.909 183.541 80.829 Q 184.061 80.749 184.541 80.519 Q 185.021 80.289 185.351 79.869 Q 185.681 79.449 185.681 78.769 Q 185.681 77.689 185.321 77.099 Q 184.961 76.509 184.381 76.219 Q 183.801 75.929 183.091 75.869 Q 182.381 75.809 181.681 75.769 Z M 195.071 92.729 Q 194.891 92.769 194.691 92.819 Q 194.491 92.869 194.151 92.869 Q 193.391 92.869 192.911 92.509 Q 192.431 92.149 192.161 91.579 Q 191.891 91.009 191.781 90.279 Q 191.671 89.549 191.671 88.829 Q 191.671 88.249 191.711 87.699 Q 191.751 87.149 191.841 86.549 Q 191.931 85.949 192.071 85.249 Q 192.211 84.549 192.431 83.689 Q 191.991 83.509 191.531 83.129 Q 191.071 82.749 190.701 82.249 Q 190.331 81.749 190.101 81.199 Q 189.871 80.649 189.871 80.149 Q 189.871 79.029 190.241 77.849 Q 190.611 76.669 191.131 75.689 Q 191.651 74.709 192.191 74.089 Q 192.731 73.469 193.091 73.469 Q 193.391 73.469 193.671 73.749 Q 193.951 74.029 193.951 74.469 Q 193.951 74.909 193.741 75.479 Q 193.531 76.049 193.281 76.699 Q 193.031 77.349 192.821 78.059 Q 192.611 78.769 192.611 79.469 Q 192.611 80.349 193.351 80.989 Q 193.571 80.269 193.901 79.359 Q 194.231 78.449 194.651 77.509 Q 195.071 76.569 195.591 75.679 Q 196.111 74.789 196.711 74.089 Q 197.311 73.389 197.971 72.969 Q 198.631 72.549 199.351 72.549 Q 200.291 72.549 200.931 72.939 Q 201.571 73.329 201.971 73.909 Q 202.371 74.489 202.551 75.169 Q 202.731 75.849 202.731 76.449 Q 202.731 77.769 202.191 79.069 Q 201.651 80.369 200.711 81.439 Q 199.771 82.509 198.511 83.269 Q 197.251 84.029 195.811 84.289 Q 195.651 85.249 195.521 86.109 Q 195.391 86.969 195.301 87.849 Q 195.211 88.729 195.161 89.699 Q 195.111 90.669 195.111 91.849 L 195.111 92.469 Z M 196.291 81.209 Q 197.231 80.789 198.011 80.119 Q 198.791 79.449 199.491 78.549 Q 200.351 77.449 200.351 76.229 Q 200.351 76.029 200.321 75.799 Q 200.291 75.569 200.201 75.369 Q 200.111 75.169 199.951 75.029 Q 199.791 74.889 199.531 74.889 Q 199.311 74.889 198.991 75.299 Q 198.671 75.709 198.321 76.349 Q 197.971 76.989 197.631 77.749 Q 197.291 78.509 197.001 79.209 Q 196.711 79.909 196.521 80.459 Q 196.331 81.009 196.291 81.209 Z" style="fill: url('#color-1-0');"/>
  <circle cx="34.984" cy="80.193" r="13.5" fill="url(#paint0_linear_425_166)"/>
  <path d="M 27.913 75.828 C 32.092 74.783 36.261 73.739 40.44 72.693 C 40.659 73.541 40.876 74.381 41.096 75.23 C 37.833 76.047 34.575 76.863 31.317 77.678 C 31.318 77.683 31.318 77.688 31.319 77.693 L 41.407 77.693 C 41.409 77.73 41.412 77.76 41.412 77.79 C 41.412 79.981 41.413 82.172 41.411 84.363 C 41.41 85.587 40.401 86.626 39.164 86.683 C 39.043 86.689 38.922 86.692 38.802 86.692 C 36.167 86.693 33.533 86.693 30.899 86.692 C 30.241 86.692 29.666 86.472 29.196 86.019 C 28.768 85.606 28.526 85.1 28.488 84.506 C 28.481 84.387 28.479 84.269 28.479 84.15 C 28.478 82.212 28.477 80.275 28.48 78.337 C 28.48 78.136 28.458 77.941 28.405 77.746 C 28.241 77.133 28.086 76.518 27.928 75.903 C 27.923 75.883 27.919 75.862 27.913 75.828 Z M 29.089 80.321 L 29.089 80.423 C 29.089 81.731 29.089 83.039 29.09 84.347 C 29.09 84.419 29.096 84.491 29.107 84.562 C 29.246 85.467 29.985 86.092 30.915 86.092 C 33.58 86.092 36.246 86.092 38.912 86.091 C 38.985 86.091 39.058 86.088 39.131 86.083 C 40.082 86.014 40.801 85.254 40.801 84.314 C 40.801 83.022 40.801 81.729 40.801 80.436 L 40.801 80.321 L 29.089 80.321 Z M 30.955 78.297 C 30.975 78.329 30.987 78.35 31 78.37 C 31.3 78.795 31.601 79.22 31.899 79.647 C 31.934 79.697 31.968 79.717 32.029 79.717 C 32.389 79.714 32.748 79.715 33.107 79.715 C 33.134 79.715 33.161 79.711 33.191 79.709 C 33.185 79.691 33.183 79.682 33.178 79.674 C 32.867 79.23 32.556 78.786 32.241 78.344 C 32.222 78.317 32.174 78.3 32.138 78.299 C 31.945 78.294 31.751 78.297 31.557 78.297 C 31.361 78.297 31.165 78.297 30.954 78.297 L 30.955 78.297 Z M 36.087 79.715 C 36.065 79.679 36.054 79.657 36.04 79.637 C 35.739 79.211 35.438 78.786 35.139 78.358 C 35.106 78.31 35.071 78.295 35.015 78.296 C 34.652 78.298 34.289 78.297 33.927 78.297 C 33.903 78.297 33.879 78.299 33.844 78.301 C 33.861 78.327 33.871 78.343 33.881 78.357 C 34.157 78.751 34.441 79.139 34.705 79.54 C 34.799 79.683 34.902 79.725 35.068 79.719 C 35.401 79.706 35.735 79.715 36.087 79.715 Z M 36.728 78.297 C 36.749 78.33 36.761 78.351 36.774 78.37 C 37.075 78.796 37.376 79.221 37.674 79.649 C 37.709 79.7 37.746 79.717 37.806 79.716 C 38.162 79.714 38.518 79.715 38.874 79.715 C 38.902 79.715 38.93 79.711 38.966 79.709 C 38.955 79.688 38.95 79.674 38.942 79.662 C 38.634 79.222 38.326 78.783 38.014 78.345 C 37.996 78.319 37.948 78.3 37.914 78.299 C 37.707 78.295 37.5 78.297 37.294 78.297 C 37.11 78.297 36.927 78.297 36.728 78.297 Z M 38.581 75.238 C 38.56 75.216 38.552 75.206 38.543 75.198 C 38.132 74.846 37.721 74.493 37.308 74.142 C 37.287 74.125 37.245 74.117 37.217 74.124 C 36.848 74.213 36.479 74.307 36.11 74.399 C 36.097 74.402 36.084 74.409 36.049 74.423 C 36.079 74.442 36.096 74.451 36.11 74.463 C 36.462 74.763 36.821 75.057 37.162 75.369 C 37.304 75.498 37.428 75.544 37.619 75.484 C 37.93 75.387 38.25 75.321 38.581 75.238 Z M 32.983 76.639 C 32.968 76.619 32.962 76.608 32.953 76.6 C 32.549 76.255 32.143 75.912 31.741 75.564 C 31.691 75.521 31.652 75.514 31.591 75.53 C 31.29 75.609 30.988 75.681 30.687 75.756 C 30.618 75.773 30.549 75.792 30.461 75.815 C 30.56 75.901 30.645 75.974 30.73 76.047 C 31.057 76.327 31.384 76.609 31.713 76.887 C 31.741 76.912 31.793 76.933 31.827 76.925 C 32.208 76.834 32.589 76.737 32.983 76.639 Z M 33.27 75.11 C 33.281 75.13 33.282 75.137 33.287 75.14 C 33.7 75.495 34.112 75.851 34.528 76.202 C 34.554 76.225 34.611 76.23 34.648 76.221 C 34.996 76.138 35.343 76.05 35.69 75.962 C 35.719 75.955 35.747 75.945 35.787 75.933 C 35.376 75.581 34.975 75.242 34.58 74.896 C 34.497 74.823 34.424 74.808 34.325 74.844 C 34.257 74.869 34.184 74.88 34.114 74.898 C 33.835 74.968 33.556 75.038 33.27 75.11 Z M 29.094 79.71 L 30.299 79.71 C 30.298 79.698 30.3 79.691 30.297 79.687 C 29.98 79.235 29.663 78.784 29.345 78.333 C 29.333 78.316 29.306 78.3 29.286 78.299 C 29.223 78.294 29.161 78.297 29.094 78.297 L 29.094 79.71 Z M 29.007 77.634 C 29.404 77.534 29.792 77.437 30.205 77.333 C 30.17 77.308 30.151 77.296 30.134 77.282 C 29.754 76.957 29.373 76.633 28.993 76.308 C 28.866 76.2 28.82 76.195 28.657 76.28 C 28.773 76.728 28.889 77.177 29.007 77.634 Z M 39.613 78.3 C 39.925 78.743 40.231 79.168 40.525 79.601 C 40.598 79.709 40.677 79.736 40.795 79.704 L 40.795 78.3 L 39.613 78.3 Z M 39.997 73.426 C 39.614 73.522 39.243 73.615 38.871 73.709 L 38.862 73.735 C 38.879 73.745 38.897 73.753 38.911 73.766 C 39.289 74.088 39.671 74.406 40.042 74.735 C 40.14 74.822 40.224 74.854 40.347 74.782 C 40.232 74.334 40.115 73.882 39.997 73.426 Z" fill="white"/>
  <path d="M 33.879 81.468 C 33.899 81.478 33.928 81.489 33.955 81.504 C 34.758 81.959 35.56 82.415 36.363 82.87 C 36.508 82.953 36.654 83.035 36.799 83.119 C 36.909 83.181 36.91 83.265 36.798 83.329 C 35.983 83.793 35.166 84.256 34.35 84.72 C 34.218 84.795 34.087 84.87 33.954 84.944 C 33.84 85.007 33.767 84.968 33.767 84.841 C 33.766 83.761 33.767 82.681 33.766 81.601 C 33.766 81.53 33.787 81.479 33.879 81.468 Z" fill="white"/>
</svg>